<svg width="30" height="30" viewBox="0 0 30 30" fill="none" xmlns="http://www.w3.org/2000/svg">
<path d="M25.6087 21.4253L20.5275 16.8053C20.2873 16.587 19.9717 16.4706 19.6472 16.4806C19.3228 16.4906 19.015 16.6263 18.7887 16.8591L15.7975 19.9353C15.0775 19.7978 13.63 19.3466 12.14 17.8603C10.65 16.3691 10.1987 14.9178 10.065 14.2028L13.1387 11.2103C13.3718 10.9842 13.5077 10.6763 13.5177 10.3518C13.5277 10.0273 13.4111 9.7116 13.1925 9.47155L8.57374 4.39155C8.35504 4.15074 8.05108 4.00468 7.72643 3.98437C7.40177 3.96407 7.08198 4.07112 6.83499 4.2828L4.12249 6.60905C3.90638 6.82594 3.77739 7.11461 3.75999 7.4203C3.74124 7.7328 3.38374 15.1353 9.12374 20.8778C14.1312 25.8841 20.4037 26.2503 22.1312 26.2503C22.3837 26.2503 22.5387 26.2428 22.58 26.2403C22.8856 26.2232 23.1741 26.0936 23.39 25.8766L25.715 23.1628C25.9275 22.9166 26.0353 22.5971 26.0155 22.2724C25.9956 21.9478 25.8497 21.6438 25.6087 21.4253Z" fill="white"/>
</svg>
