<svg width="30" height="30" viewBox="0 0 30 30" fill="none" xmlns="http://www.w3.org/2000/svg">
<path d="M15 3C10.035 3 6 7.035 6 12C6 15.03 7.755 17.565 9.795 19.335C10.44 19.89 11.565 20.775 12.57 22.08C13.68 23.535 14.685 25.095 15 26.145C15.315 25.095 16.32 23.535 17.43 22.08C18.435 20.775 19.56 19.89 20.205 19.335C22.245 17.565 24 15.03 24 12C24 7.035 19.965 3 15 3ZM15 6.84C15.6776 6.84 16.3486 6.97347 16.9746 7.23278C17.6007 7.4921 18.1695 7.87218 18.6487 8.35133C19.1278 8.83048 19.5079 9.39931 19.7672 10.0254C20.0265 10.6514 20.16 11.3224 20.16 12C20.16 12.6776 20.0265 13.3486 19.7672 13.9746C19.5079 14.6007 19.1278 15.1695 18.6487 15.6487C18.1695 16.1278 17.6007 16.5079 16.9746 16.7672C16.3486 17.0265 15.6776 17.16 15 17.16C13.6315 17.16 12.319 16.6164 11.3513 15.6487C10.3836 14.681 9.84 13.3685 9.84 12C9.84 10.6315 10.3836 9.31902 11.3513 8.35133C12.319 7.38364 13.6315 6.84 15 6.84Z" fill="white"/>
</svg>
