<svg width="45" height="30" viewBox="0 0 70 50" fill="none" xmlns="http://www.w3.org/2000/svg">
<path d="M61.7969 7.8125H8.20312C7.90234 7.8125 7.65625 7.98828 7.65625 8.20312V11.3281C7.65625 11.543 7.90234 11.7188 8.20312 11.7188H61.7969C62.0977 11.7188 62.3438 11.543 62.3438 11.3281V8.20312C62.3438 7.98828 62.0977 7.8125 61.7969 7.8125ZM61.7969 38.2812H8.20312C7.90234 38.2812 7.65625 38.457 7.65625 38.6719V41.7969C7.65625 42.0117 7.90234 42.1875 8.20312 42.1875H61.7969C62.0977 42.1875 62.3438 42.0117 62.3438 41.7969V38.6719C62.3438 38.457 62.0977 38.2812 61.7969 38.2812ZM61.7969 23.0469H8.20312C7.90234 23.0469 7.65625 23.2227 7.65625 23.4375V26.5625C7.65625 26.7773 7.90234 26.9531 8.20312 26.9531H61.7969C62.0977 26.9531 62.3438 26.7773 62.3438 26.5625V23.4375C62.3438 23.2227 62.0977 23.0469 61.7969 23.0469Z" fill="#707070"/>
</svg>
