<svg width="27" height="19" viewBox="0 0 27 19" fill="none" xmlns="http://www.w3.org/2000/svg">
<path d="M25.9478 2.87402C25.7981 2.3175 25.5045 1.80997 25.0964 1.40225C24.6884 0.994533 24.1802 0.700914 23.6227 0.550781C21.5706 1.11759e-07 13.3445 0 13.3445 0C13.3445 0 5.1184 -1.11759e-07 3.06628 0.547851C2.50854 0.697497 2.00007 0.990953 1.59194 1.39875C1.18381 1.80655 0.890385 2.31432 0.741131 2.87109C0.192139 4.92188 0.192139 9.19922 0.192139 9.19922C0.192139 9.19922 0.192139 13.4766 0.741131 15.5244C1.04352 16.6553 1.936 17.5459 3.06628 17.8477C5.1184 18.3984 13.3445 18.3984 13.3445 18.3984C13.3445 18.3984 21.5706 18.3984 23.6227 17.8477C24.7559 17.5459 25.6454 16.6553 25.9478 15.5244C26.4968 13.4766 26.4968 9.19922 26.4968 9.19922C26.4968 9.19922 26.4968 4.92188 25.9478 2.87402ZM10.7316 13.125V5.27344L17.5427 9.16992L10.7316 13.125Z" fill="white"/>
</svg>
